# Blender 3.4.0
# www.blender.org
mtllib steve_fix.mtl
o Steve_Body
v -0.170177 1.951214 -0.369203
v -0.170177 1.951214 0.379716
v 0.170177 1.951214 0.379716
v 0.170177 1.951214 -0.369203
v -0.170177 0.974148 -0.369203
v -0.170177 0.974148 0.379716
v 0.170177 0.974148 -0.369203
v 0.170177 0.974148 0.379716
vn -0.5774 0.5774 -0.5773
vn -0.5774 0.5774 0.5774
vn 0.5774 0.5774 0.5773
vn 0.5773 0.5774 -0.5774
vn -0.5774 -0.5774 -0.5774
vn -0.5773 -0.5774 0.5774
vn 0.5774 -0.5774 -0.5774
vn 0.5774 -0.5774 0.5773
vt 0.439419 0.501069
vt 0.622224 0.375264
vt 0.500000 0.370784
vt 0.313044 0.494516
vt 0.505681 0.370022
vt 0.309159 0.373364
vt 0.314588 0.373515
vt 0.249632 0.373364
vt 0.312738 0.372217
vt 0.440962 0.380069
vt 0.441207 0.370784
vt 0.438887 0.372217
vt 0.625501 0.005748
vt 0.500000 -0.005172
vt 0.183671 0.494358
vt 0.508958 0.000506
vt 0.309159 -0.002509
vt 0.185427 0.380179
vt 0.441206 -0.005172
vt 0.438887 0.000239
vt 0.127578 0.496613
vt 0.249632 -0.002509
vt 0.312738 0.000239
vt 0.129334 0.382434
s 1
usemtl Steve.001
f 1/1/1 2/4/2 3/7/3 4/10/4
f 1/2/1 5/13/5 6/16/6 2/5/2
f 5/14/5 1/3/1 4/11/4 7/19/7
f 2/6/2 6/17/6 8/22/8 3/8/3
f 3/9/3 8/23/8 7/20/7 4/12/4
f 5/15/5 7/21/7 8/24/8 6/18/6
o Steve_Head
v -0.326264 2.599755 0.328410
v -0.326264 1.947241 0.324106
v -0.326264 1.947241 0.324106
v -0.326264 2.599755 0.328410
v 0.326264 2.599755 0.328410
v 0.326264 2.604059 -0.324105
v -0.326264 2.604058 -0.324105
v -0.326264 1.951544 -0.328408
v 0.326264 2.599755 0.328410
v 0.326264 1.951544 -0.328408
v 0.326264 1.947241 0.324106
v 0.326264 1.947241 0.324106
vn -0.4074 0.4073 0.8174
vn -0.4091 -0.4091 0.8156
vn -0.0000 -0.0022 1.0000
vn 0.4074 0.4073 0.8174
vn 0.5774 0.5811 -0.5735
vn -0.5774 0.5811 -0.5735
vn -0.5774 -0.5735 -0.5811
vn 0.5774 -0.5735 -0.5811
vn 0.4091 -0.4091 0.8156
vt 0.376673 0.749269
vt 0.125829 0.999911
vt 0.375900 0.503487
vt 0.369216 0.991808
vt 1.000000 1.000000
vt 0.375900 0.503487
vt 1.000000 1.000000
vt 0.001326 0.503335
vt 0.376673 0.749269
vt 0.125829 0.999911
vt 0.002091 0.753476
vt 0.125457 0.755906
vt 0.126238 0.747512
vt 0.249146 0.755974
vt 0.251113 0.748845
vt 0.250104 0.747256
vt 0.249112 0.999932
vt 0.500661 0.750006
vt 0.374931 0.749621
vt 0.500024 0.502517
vt 0.253952 0.991808
vt 0.374877 0.506418
vt 0.125457 0.755906
vt 0.124180 0.750315
vt 0.126238 0.747512
vt 0.253952 0.761856
vt 0.250780 0.503290
vt 0.249306 0.504219
vt 0.369216 0.761856
vt 1.000000 0.000000
vt 0.125687 0.503316
vt 1.000000 0.000000
vt 0.123832 0.501264
vt 0.125687 0.503316
s 1
usemtl Steve.001
f 9/25/9 10/27/10 11/30/11 12/33/11
f 13/36/12 14/38/13 15/41/14 9/26/9
f 9/25/9 15/42/14 16/44/15 10/27/10
f 13/36/12 9/26/9 12/34/11 17/47/11
f 18/50/16 19/53/17 10/28/10 16/45/15
f 10/29/10 19/54/17 20/56/11 11/31/11
f 20/57/11 17/48/11 12/35/11 11/32/11
f 19/55/17 18/51/16 14/39/13 13/37/12
f 19/55/17 13/37/12 17/49/11 20/58/11
f 18/52/16 16/46/15 15/43/14 14/40/13
o Steve_LArm
v -0.179089 1.951023 -0.730024
v -0.183006 1.952170 -0.359329
v 0.157305 1.956273 -0.355746
v 0.161221 1.955125 -0.726441
v -0.167345 0.974033 -0.726875
v -0.171261 0.975180 -0.356180
v 0.172966 0.978135 -0.723292
v 0.169049 0.979282 -0.352598
vn -0.5781 0.5686 -0.5853
vn -0.5903 0.5721 0.5694
vn 0.5642 0.5861 0.5815
vn 0.5764 0.5825 -0.5731
vn -0.5642 -0.5861 -0.5815
vn -0.5764 -0.5825 0.5731
vn 0.5903 -0.5721 -0.5694
vn 0.5781 -0.5686 0.5853
vt 0.689934 0.495565
vt 0.691096 0.377156
vt 0.691833 0.375361
vt 0.689339 0.380423
vt 0.753152 0.375250
vt 0.688328 0.374991
vt 0.748153 0.380419
vt 0.748819 0.369061
vt 0.688839 0.369572
vt 0.748748 0.495561
vt 0.751610 0.369261
vt 0.752404 0.365834
vt 0.693834 0.001912
vt 0.690080 0.003953
vt 0.813120 0.496101
vt 0.747501 0.008395
vt 0.688328 0.005988
vt 0.814246 0.387968
vt 0.749856 -0.002147
vt 0.751165 0.000589
vt 0.757901 0.498796
vt 0.748819 0.000058
vt 0.687600 0.004327
vt 0.759715 0.389343
s 1
usemtl Steve.001
f 21/59/18 22/62/19 23/65/20 24/68/21
f 21/60/18 25/71/22 26/74/23 22/63/19
f 25/72/22 21/61/18 24/69/21 27/77/24
f 22/64/19 26/75/23 28/80/25 23/66/20
f 23/67/20 28/81/25 27/78/24 24/70/21
f 25/73/22 27/79/24 28/82/25 26/76/23
o Steve_LLeg
v -0.170177 0.976043 -0.371578
v -0.170177 0.976042 -0.000861
v 0.170177 0.976042 -0.000861
v 0.170177 0.976043 -0.371578
v -0.170177 -0.001024 -0.371578
v -0.170177 -0.001024 -0.000861
v 0.170177 -0.001024 -0.371578
v 0.170177 -0.001024 -0.000861
vn -0.5774 0.5774 -0.5773
vn -0.5774 0.5774 0.5774
vn 0.5774 0.5774 0.5774
vn 0.5773 0.5774 -0.5774
vn -0.5774 -0.5774 -0.5774
vn -0.5773 -0.5774 0.5774
vn 0.5773 -0.5774 -0.5774
vn 0.5774 -0.5774 0.5773
vt 0.122711 0.377515
vt 0.250211 0.373175
vt 0.187524 0.370784
vt 0.122790 0.486939
vt 0.187955 0.370491
vt -0.003674 0.368140
vt 0.062175 0.489947
vt 0.058530 0.367886
vt 0.068050 0.365241
vt 0.062097 0.380523
vt 0.125900 0.370784
vt 0.122484 0.365241
vt 0.250211 0.001371
vt 0.187525 0.000071
vt 0.185797 0.496086
vt 0.187955 -0.001314
vt 0.003760 -0.002275
vt 0.186982 0.384604
vt 0.125900 0.000071
vt 0.122484 0.003935
vt 0.129150 0.496087
vt 0.065964 -0.002528
vt 0.068050 0.003935
vt 0.130335 0.384604
s 1
usemtl Steve.001
f 29/83/26 30/86/27 31/89/28 32/92/29
f 29/84/26 33/95/30 34/98/31 30/87/27
f 33/96/30 29/85/26 32/93/29 35/101/32
f 30/88/27 34/99/31 36/104/33 31/90/28
f 31/91/28 36/105/33 35/102/32 32/94/29
f 33/97/30 35/103/32 36/106/33 34/100/31
o Steve_RArm
v -0.179089 0.966688 0.730024
v -0.183006 0.965541 0.359330
v 0.157305 0.961438 0.355747
v 0.161221 0.962586 0.726441
v -0.167345 1.943679 0.726876
v -0.171261 1.942531 0.356182
v 0.172966 1.939576 0.723293
v 0.169049 1.938429 0.352599
vn -0.5781 -0.5686 0.5853
vn -0.5903 -0.5721 -0.5694
vn 0.5642 -0.5861 -0.5815
vn 0.5764 -0.5825 0.5731
vn -0.5642 0.5861 0.5815
vn -0.5764 0.5825 -0.5731
vn 0.5903 0.5721 0.5694
vn 0.5781 0.5686 -0.5853
vt 0.810749 0.385914
vt 0.747193 0.001975
vt 0.697119 0.006768
vt 0.811271 0.499729
vt 0.691885 0.002077
vt 0.752226 0.003554
vt 0.759676 0.499733
vt 0.688849 0.009758
vt 0.756093 0.006957
vt 0.759154 0.385918
vt 0.755237 0.007035
vt 0.688950 0.008460
vt 0.748349 0.364560
vt 0.692350 0.372208
vt 0.686919 0.378174
vt 0.693041 0.364662
vt 0.753944 0.372404
vt 0.686282 0.500739
vt 0.750468 0.372475
vt 0.689552 0.364713
vt 0.749925 0.378174
vt 0.690567 0.378607
vt 0.756694 0.363210
vt 0.749289 0.500739
s 1
usemtl Steve.001
f 37/107/34 38/110/35 39/113/36 40/116/37
f 37/108/34 41/119/38 42/122/39 38/111/35
f 41/120/38 37/109/34 40/117/37 43/125/40
f 38/112/35 42/123/39 44/128/41 39/114/36
f 39/115/36 44/129/41 43/126/40 40/118/37
f 41/121/38 43/127/40 44/130/41 42/124/39
o Steve_RLeg
v -0.170177 0.976042 0.000148
v -0.170177 0.976042 0.370865
v 0.170177 0.976042 0.370865
v 0.170177 0.976042 0.000148
v -0.170177 -0.001024 0.000147
v -0.170177 -0.001024 0.370864
v 0.170177 -0.001024 0.000147
v 0.170177 -0.001024 0.370864
vn -0.5774 0.5774 -0.5773
vn -0.5774 0.5773 0.5774
vn 0.5774 0.5773 0.5774
vn 0.5773 0.5774 -0.5774
vn -0.5774 -0.5774 -0.5774
vn -0.5773 -0.5774 0.5774
vn 0.5774 -0.5774 -0.5774
vn 0.5774 -0.5774 0.5773
vt 0.124564 0.372844
vt 0.250211 0.370491
vt 0.000807 0.377727
vt 0.123284 0.495731
vt 0.190639 0.367806
vt 0.000878 0.373364
vt 0.062259 0.497328
vt 0.062985 0.373364
vt 0.065586 0.375905
vt 0.063538 0.374441
vt 0.059514 0.377727
vt 0.125158 0.375770
vt 0.250211 0.001371
vt 0.000807 0.009620
vt 0.179068 0.489942
vt 0.190639 -0.001314
vt 0.000878 0.010074
vt 0.177758 0.401205
vt 0.059514 0.009620
vt 0.124947 0.003338
vt 0.130391 0.486732
vt 0.062985 0.010074
vt 0.065375 0.003473
vt 0.129081 0.397994
s 1
usemtl Steve.001
f 45/131/42 46/134/43 47/137/44 48/140/45
f 45/132/42 49/143/46 50/146/47 46/135/43
f 49/144/46 45/133/42 48/141/45 51/149/48
f 46/136/43 50/147/47 52/152/49 47/138/44
f 47/139/44 52/153/49 51/150/48 48/142/45
f 49/145/46 51/151/48 52/154/49 50/148/47
